<mxfile host="app.diagrams.net" modified="2023-06-02T11:16:03.981Z" agent="Mozilla/5.0 (Windows NT 10.0; Win64; x64) AppleWebKit/537.36 (KHTML, like Gecko) Chrome/113.0.0.0 Safari/537.36" etag="rKVliGdShtCzHcACdT_N" version="21.2.9" type="device">
  <diagram name="Page-1" id="2wHqhmnI1RYG7l9WMeO5">
    <mxGraphModel dx="1354" dy="796" grid="1" gridSize="10" guides="1" tooltips="1" connect="1" arrows="1" fold="1" page="1" pageScale="1" pageWidth="827" pageHeight="1169" math="0" shadow="0">
      <root>
        <mxCell id="0" />
        <mxCell id="1" parent="0" />
        <mxCell id="qaO6YQ1z2F562kpD8xXE-15" value="" style="rounded=0;whiteSpace=wrap;html=1;" vertex="1" parent="1">
          <mxGeometry x="80" y="240" width="530" height="330" as="geometry" />
        </mxCell>
        <mxCell id="qaO6YQ1z2F562kpD8xXE-3" value="" style="endArrow=classic;html=1;rounded=0;entryX=0;entryY=0.5;entryDx=0;entryDy=0;" edge="1" parent="1" target="qaO6YQ1z2F562kpD8xXE-4">
          <mxGeometry width="50" height="50" relative="1" as="geometry">
            <mxPoint x="10" y="430" as="sourcePoint" />
            <mxPoint x="110" y="390" as="targetPoint" />
          </mxGeometry>
        </mxCell>
        <mxCell id="qaO6YQ1z2F562kpD8xXE-4" value="Listeners&lt;br&gt;[Port: 10000]" style="rounded=1;whiteSpace=wrap;html=1;fillColor=#b1ddf0;strokeColor=#10739e;" vertex="1" parent="1">
          <mxGeometry x="130" y="400" width="120" height="60" as="geometry" />
        </mxCell>
        <mxCell id="qaO6YQ1z2F562kpD8xXE-5" value="" style="endArrow=classic;html=1;rounded=0;exitX=1;exitY=0.5;exitDx=0;exitDy=0;entryX=-0.017;entryY=0.675;entryDx=0;entryDy=0;entryPerimeter=0;" edge="1" parent="1" source="qaO6YQ1z2F562kpD8xXE-4" target="qaO6YQ1z2F562kpD8xXE-7">
          <mxGeometry relative="1" as="geometry">
            <mxPoint x="280" y="420" as="sourcePoint" />
            <mxPoint x="360" y="430" as="targetPoint" />
            <Array as="points">
              <mxPoint x="310" y="430" />
            </Array>
          </mxGeometry>
        </mxCell>
        <mxCell id="qaO6YQ1z2F562kpD8xXE-6" value="&lt;b&gt;Filters&lt;/b&gt;" style="edgeLabel;resizable=0;html=1;align=center;verticalAlign=middle;" connectable="0" vertex="1" parent="qaO6YQ1z2F562kpD8xXE-5">
          <mxGeometry relative="1" as="geometry">
            <mxPoint x="-6" as="offset" />
          </mxGeometry>
        </mxCell>
        <mxCell id="qaO6YQ1z2F562kpD8xXE-7" value="Route 1" style="ellipse;whiteSpace=wrap;html=1;fillColor=#fad9d5;strokeColor=#ae4132;" vertex="1" parent="1">
          <mxGeometry x="340" y="350" width="60" height="40" as="geometry" />
        </mxCell>
        <mxCell id="qaO6YQ1z2F562kpD8xXE-8" value="Route N" style="ellipse;whiteSpace=wrap;html=1;fillColor=#d0cee2;strokeColor=#56517e;" vertex="1" parent="1">
          <mxGeometry x="330" y="440" width="60" height="40" as="geometry" />
        </mxCell>
        <mxCell id="qaO6YQ1z2F562kpD8xXE-10" value="&lt;b style=&quot;border-color: var(--border-color);&quot;&gt;Cluster 1&lt;/b&gt;" style="ellipse;shape=cloud;whiteSpace=wrap;html=1;fillColor=#fff2cc;strokeColor=#d6b656;" vertex="1" parent="1">
          <mxGeometry x="450" y="310" width="120" height="60" as="geometry" />
        </mxCell>
        <mxCell id="qaO6YQ1z2F562kpD8xXE-11" value="&lt;b style=&quot;border-color: var(--border-color);&quot;&gt;Cluster 2&lt;/b&gt;" style="ellipse;shape=cloud;whiteSpace=wrap;html=1;fillColor=#dae8fc;strokeColor=#6c8ebf;" vertex="1" parent="1">
          <mxGeometry x="450" y="370" width="120" height="60" as="geometry" />
        </mxCell>
        <mxCell id="qaO6YQ1z2F562kpD8xXE-12" value="&lt;b style=&quot;border-color: var(--border-color);&quot;&gt;Cluster N&lt;/b&gt;" style="ellipse;shape=cloud;whiteSpace=wrap;html=1;fillColor=#d5e8d4;strokeColor=#82b366;" vertex="1" parent="1">
          <mxGeometry x="450" y="440" width="120" height="60" as="geometry" />
        </mxCell>
        <mxCell id="qaO6YQ1z2F562kpD8xXE-13" value="" style="endArrow=classic;html=1;rounded=0;exitX=1;exitY=0.5;exitDx=0;exitDy=0;entryX=0.16;entryY=0.55;entryDx=0;entryDy=0;entryPerimeter=0;" edge="1" parent="1" source="qaO6YQ1z2F562kpD8xXE-7" target="qaO6YQ1z2F562kpD8xXE-10">
          <mxGeometry relative="1" as="geometry">
            <mxPoint x="470" y="370" as="sourcePoint" />
            <mxPoint x="570" y="370" as="targetPoint" />
          </mxGeometry>
        </mxCell>
        <mxCell id="qaO6YQ1z2F562kpD8xXE-14" value="Label" style="edgeLabel;resizable=0;html=1;align=center;verticalAlign=middle;" connectable="0" vertex="1" parent="qaO6YQ1z2F562kpD8xXE-13">
          <mxGeometry relative="1" as="geometry" />
        </mxCell>
        <mxCell id="qaO6YQ1z2F562kpD8xXE-17" value="&lt;b&gt;Application&lt;/b&gt;" style="shape=cube;whiteSpace=wrap;html=1;boundedLbl=1;backgroundOutline=1;darkOpacity=0.05;darkOpacity2=0.1;" vertex="1" parent="1">
          <mxGeometry x="780" y="310" width="120" height="80" as="geometry" />
        </mxCell>
        <mxCell id="qaO6YQ1z2F562kpD8xXE-18" value="" style="endArrow=classic;html=1;rounded=0;entryX=0;entryY=0;entryDx=0;entryDy=30;entryPerimeter=0;" edge="1" parent="1" target="qaO6YQ1z2F562kpD8xXE-17">
          <mxGeometry relative="1" as="geometry">
            <mxPoint x="560" y="340" as="sourcePoint" />
            <mxPoint x="660" y="340" as="targetPoint" />
          </mxGeometry>
        </mxCell>
        <mxCell id="qaO6YQ1z2F562kpD8xXE-19" value="Endpoint (host:port)&amp;nbsp;" style="edgeLabel;resizable=0;html=1;align=center;verticalAlign=middle;" connectable="0" vertex="1" parent="qaO6YQ1z2F562kpD8xXE-18">
          <mxGeometry relative="1" as="geometry" />
        </mxCell>
      </root>
    </mxGraphModel>
  </diagram>
</mxfile>
